<svg xmlns="http://www.w3.org/2000/svg" width="64" height="64" viewBox="0 0 64 64"><g transform="translate(420)"><g transform="translate(-411.401 3)" fill="#fff" stroke="#2f89fc" stroke-miterlimit="10" stroke-width="2"><rect width="31.401" height="58" rx="4" stroke="none"/><rect x="1" y="1" width="29.401" height="56" rx="3" fill="none"/></g><g transform="translate(-407.701 12)" fill="#e7f3fe" stroke="#2f89fc" stroke-miterlimit="10" stroke-width="1"><rect width="24" height="39" rx="1" stroke="none"/><rect x="0.5" y="0.5" width="23" height="38" rx="0.5" fill="none"/></g><circle cx="2" cy="2" r="2" transform="translate(-397.701 53)" fill="#2f89fc"/><line x2="4" transform="translate(-397.701 8.5)" fill="#fff" stroke="#2f89fc" stroke-linecap="round" stroke-miterlimit="10" stroke-width="1"/><rect width="15" height="10" rx="1" stroke-width="1" fill="#fff" stroke="#a1cdfc" stroke-linecap="round" stroke-miterlimit="10" transform="translate(-403.201 19.5)"/><line x2="13.863" y2="9.328" transform="translate(-402.701 19.836)" fill="#fff" stroke="#a1cdfc" stroke-linecap="round" stroke-miterlimit="10" stroke-width="1"/><line x1="13.863" y2="9.328" transform="translate(-402.701 19.836)" fill="#fff" stroke="#a1cdfc" stroke-linecap="round" stroke-miterlimit="10" stroke-width="1"/><rect width="23" height="3.5" transform="translate(-407.201 13)" fill="#2f89fc"/><line x2="15" transform="translate(-403.201 34.5)" fill="#fff" stroke="#a1cdfc" stroke-linecap="round" stroke-miterlimit="10" stroke-width="1"/><g transform="translate(-396.401 26.266)" fill="#fff" stroke="#30e3ca" stroke-miterlimit="10" stroke-width="2"><rect width="34.401" height="20.734" rx="4" stroke="none"/><rect x="1" y="1" width="32.401" height="18.734" rx="3" fill="none"/></g><line x2="14" transform="translate(-391.201 40.633)" fill="#fff" stroke="#30e3ca" stroke-linecap="round" stroke-miterlimit="10" stroke-width="1"/><line x2="22" transform="translate(-391.201 37.633)" fill="#fff" stroke="#30e3ca" stroke-linecap="round" stroke-miterlimit="10" stroke-width="1"/><rect width="2" height="1" rx="0.5" stroke-width="1" fill="#fff" stroke="#30e3ca" stroke-linecap="round" stroke-miterlimit="10" transform="translate(-391.201 31.633)"/><rect width="2" height="1" rx="0.5" stroke-width="1" fill="#fff" stroke="#30e3ca" stroke-linecap="round" stroke-miterlimit="10" transform="translate(-386.201 31.633)"/><rect width="2" height="1" rx="0.5" stroke-width="1" fill="#fff" stroke="#30e3ca" stroke-linecap="round" stroke-miterlimit="10" transform="translate(-381.201 31.633)"/><path d="M-371.484,41.516-366.833,54l1.55-6.283,6.283-1.55Z" fill="#2f89fc" stroke="#2f89fc" stroke-linecap="round" stroke-linejoin="round" stroke-width="1"/><rect width="4" height="1" rx="0.5" stroke-width="1" fill="#fff" stroke="#a1cdfc" stroke-linecap="round" stroke-miterlimit="10" transform="translate(-403.201 43.5)"/><rect width="2" height="1" rx="0.5" stroke-width="1" fill="#fff" stroke="#a1cdfc" stroke-linecap="round" stroke-miterlimit="10" transform="translate(-403.201 39.5)"/><rect width="64" height="64" transform="translate(-420)" fill="none"/></g></svg>