<svg xmlns="http://www.w3.org/2000/svg" width="64" height="64" viewBox="0 0 64 64"><g transform="translate(16.599 3)" fill="#fff" stroke="#2f89fc" stroke-miterlimit="10" stroke-width="2"><rect width="31.401" height="58" rx="4" stroke="none"/><rect x="1" y="1" width="29.401" height="56" rx="3" fill="none"/></g><g transform="translate(20 12)" fill="#e7f3fe" stroke="#2f89fc" stroke-miterlimit="10" stroke-width="1"><rect width="24" height="39" rx="1" stroke="none"/><rect x="0.5" y="0.5" width="23" height="38" rx="0.5" fill="none"/></g><circle cx="2" cy="2" r="2" transform="translate(30 53)" fill="#2f89fc"/><line x2="4" transform="translate(30 8.5)" fill="#fff" stroke="#2f89fc" stroke-linecap="round" stroke-miterlimit="10" stroke-width="1"/><path d="M36.056,35.338c-1.432,1.432-4.5.685-6.854-1.668s-3.1-5.422-1.668-6.854l.872-.872a.9.9,0,0,1,1.279,0l.546.545a.906.906,0,0,1,0,1.28l-.872.872c-.8.8-.355,2.537.99,3.882s3.084,1.789,3.882.99l.873-.872a.9.9,0,0,1,1.279,0l.546.546a.9.9,0,0,1,0,1.279Z" fill="#30e3ca" stroke="#30e3ca" stroke-linecap="round" stroke-miterlimit="10" stroke-width="1"/><rect width="64" height="64" transform="translate(0 0)" fill="none"/></svg>