<svg xmlns="http://www.w3.org/2000/svg" width="64" height="64" viewBox="0 0 64 64"><g transform="translate(9.5 29.25)" fill="#e7f3fe" stroke="#2f89fc" stroke-miterlimit="10" stroke-width="1"><rect width="45" height="27" stroke="none"/><rect x="0.5" y="0.5" width="44" height="26" fill="none"/></g><path d="M29.306,11.2,9.5,29.25h45L34.694,11.2A4,4,0,0,0,29.306,11.2Z" fill="#e7f3fe" stroke="#2f89fc" stroke-linejoin="round" stroke-width="2"/><g transform="translate(15.5 8.75)" fill="#fff" stroke="#30e3ca" stroke-linecap="round" stroke-miterlimit="10" stroke-width="2"><rect width="33" height="43" rx="1" stroke="none"/><rect x="1" y="1" width="31" height="41" fill="none"/></g><path d="M32,42.75,9.5,29.25v27Z" fill="#fff" stroke="#2f89fc" stroke-linecap="round" stroke-linejoin="round" stroke-width="2"/><path d="M32,42.75l22.5-13.5v27Z" fill="#fff" stroke="#2f89fc" stroke-linecap="round" stroke-linejoin="round" stroke-width="2"/><path d="M29.306,38.2,9.5,56.25h45L34.694,38.2A4,4,0,0,0,29.306,38.2Z" fill="#fff" stroke="#2f89fc" stroke-linecap="round" stroke-linejoin="round" stroke-width="2"/><line x2="13.682" transform="translate(21.58 31.25)" fill="#fff" stroke="#30e3ca" stroke-linecap="round" stroke-miterlimit="10" stroke-width="1"/><line x2="21.5" transform="translate(21.33 27.25)" fill="#fff" stroke="#30e3ca" stroke-linecap="round" stroke-miterlimit="10" stroke-width="1"/><line x2="21.5" transform="translate(21.33 23.25)" fill="#fff" stroke="#30e3ca" stroke-linecap="round" stroke-miterlimit="10" stroke-width="1"/><rect width="2" height="1" rx="0.5" stroke-width="1" fill="#fff" stroke="#30e3ca" stroke-linecap="round" stroke-miterlimit="10" transform="translate(21.5 15.25)"/><rect width="2" height="1" rx="0.5" stroke-width="1" fill="#fff" stroke="#30e3ca" stroke-linecap="round" stroke-miterlimit="10" transform="translate(26.5 15.25)"/><rect width="2" height="1" rx="0.5" stroke-width="1" fill="#fff" stroke="#30e3ca" stroke-linecap="round" stroke-miterlimit="10" transform="translate(31.5 15.25)"/><rect width="64" height="64" fill="none"/></svg>