<svg xmlns="http://www.w3.org/2000/svg" width="64" height="64" viewBox="0 0 64 64"><g transform="translate(5 10)" fill="#fff" stroke="#2f89fc" stroke-miterlimit="10" stroke-width="2"><rect width="54" height="44" rx="2" stroke="none"/><rect x="1" y="1" width="52" height="42" rx="1" fill="none"/></g><rect width="50" height="5" transform="translate(7 11)" fill="#2f89fc"/><circle cx="1" cy="1" r="1" transform="translate(8 12)" fill="#a1cdfc"/><circle cx="1" cy="1" r="1" transform="translate(11 12)" fill="#a1cdfc"/><circle cx="1" cy="1" r="1" transform="translate(14 12)" fill="#a1cdfc"/><path d="M23.02,26.023,15.98,34l7.041,7.977" fill="none" stroke="#30e3ca" stroke-linecap="round" stroke-linejoin="round" stroke-width="2"/><path d="M40.98,26.023,48.02,34,40.98,41.977" fill="none" stroke="#30e3ca" stroke-linecap="round" stroke-linejoin="round" stroke-width="2"/><line x1="8.329" y2="22" transform="translate(27.815 23)" stroke-width="2" stroke="#30e3ca" stroke-linecap="round" stroke-linejoin="round" fill="none"/><line x2="10" transform="translate(10.5 18.5)" fill="#fff" stroke="#a1cdfc" stroke-linecap="round" stroke-miterlimit="10" stroke-width="1"/><line x2="10" transform="translate(10.5 21.5)" fill="#fff" stroke="#a1cdfc" stroke-linecap="round" stroke-miterlimit="10" stroke-width="1"/><line x2="8" transform="translate(11.5 46.5)" fill="#fff" stroke="#a1cdfc" stroke-linecap="round" stroke-miterlimit="10" stroke-width="1"/><line x2="5" transform="translate(10.5 43.5)" fill="#fff" stroke="#a1cdfc" stroke-linecap="round" stroke-miterlimit="10" stroke-width="1"/><line x2="6" transform="translate(43.5 46.5)" fill="#fff" stroke="#a1cdfc" stroke-linecap="round" stroke-miterlimit="10" stroke-width="1"/><line y1="2" transform="translate(51.5 45.5)" fill="#fff" stroke="#30e3ca" stroke-linecap="round" stroke-miterlimit="10" stroke-width="1"/><line x2="8" transform="translate(43.5 49.5)" fill="#fff" stroke="#a1cdfc" stroke-linecap="round" stroke-miterlimit="10" stroke-width="1"/><line x2="6" transform="translate(43.5 18.5)" fill="#fff" stroke="#a1cdfc" stroke-linecap="round" stroke-miterlimit="10" stroke-width="1"/><line x2="8" transform="translate(43.5 21.5)" fill="#fff" stroke="#a1cdfc" stroke-linecap="round" stroke-miterlimit="10" stroke-width="1"/><line x2="2" transform="translate(10.5 24.5)" fill="#fff" stroke="#a1cdfc" stroke-linecap="round" stroke-miterlimit="10" stroke-width="1"/><line x2="2" transform="translate(10.5 49.5)" fill="#fff" stroke="#a1cdfc" stroke-linecap="round" stroke-miterlimit="10" stroke-width="1"/><rect width="64" height="64" fill="none"/></svg>