<svg xmlns="http://www.w3.org/2000/svg" width="64" height="64" viewBox="0 0 64 64"><g transform="translate(-84)"><g transform="translate(90 5)" fill="#e7f3fe" stroke="#a1cdfc" stroke-linecap="round" stroke-miterlimit="10" stroke-width="2"><rect width="22" height="22" rx="1" stroke="none"/><rect x="1" y="1" width="20" height="20" fill="none"/></g><line x2="18.484" y2="18.656" transform="translate(91.666 6.672)" fill="#e7f3fe" stroke="#a1cdfc" stroke-linecap="round" stroke-miterlimit="10" stroke-width="2"/><line x1="18.484" y2="18.656" transform="translate(91.666 6.672)" fill="#e7f3fe" stroke="#a1cdfc" stroke-linecap="round" stroke-miterlimit="10" stroke-width="2"/><g transform="translate(103 20)" fill="#fff" stroke="#30e3ca" stroke-linecap="round" stroke-miterlimit="10" stroke-width="2"><rect width="29" height="29" rx="1" stroke="none"/><rect x="1" y="1" width="27" height="27" fill="none"/></g><g transform="translate(101 18)" fill="#fff" stroke="#30e3ca" stroke-linecap="round" stroke-miterlimit="10" stroke-width="2"><rect width="7" height="7" rx="1" stroke="none"/><rect x="1" y="1" width="5" height="5" fill="none"/></g><g transform="translate(114 18)" fill="#fff" stroke="#30e3ca" stroke-linecap="round" stroke-miterlimit="10" stroke-width="2"><rect width="7" height="7" rx="1" stroke="none"/><rect x="1" y="1" width="5" height="5" fill="none"/></g><g transform="translate(127 18)" fill="#fff" stroke="#30e3ca" stroke-linecap="round" stroke-miterlimit="10" stroke-width="2"><rect width="7" height="7" rx="1" stroke="none"/><rect x="1" y="1" width="5" height="5" fill="none"/></g><g transform="translate(101 44)" fill="#fff" stroke="#30e3ca" stroke-linecap="round" stroke-miterlimit="10" stroke-width="2"><rect width="7" height="7" rx="1" stroke="none"/><rect x="1" y="1" width="5" height="5" fill="none"/></g><g transform="translate(114 44)" fill="#fff" stroke="#30e3ca" stroke-linecap="round" stroke-miterlimit="10" stroke-width="2"><rect width="7" height="7" rx="1" stroke="none"/><rect x="1" y="1" width="5" height="5" fill="none"/></g><g transform="translate(127 44)" fill="#fff" stroke="#30e3ca" stroke-linecap="round" stroke-miterlimit="10" stroke-width="2"><rect width="7" height="7" rx="1" stroke="none"/><rect x="1" y="1" width="5" height="5" fill="none"/></g><g transform="translate(101 31)" fill="#fff" stroke="#30e3ca" stroke-linecap="round" stroke-miterlimit="10" stroke-width="2"><rect width="7" height="7" rx="1" stroke="none"/><rect x="1" y="1" width="5" height="5" fill="none"/></g><g transform="translate(127 31)" fill="#fff" stroke="#30e3ca" stroke-linecap="round" stroke-miterlimit="10" stroke-width="2"><rect width="7" height="7" rx="1" stroke="none"/><rect x="1" y="1" width="5" height="5" fill="none"/></g><circle cx="1.5" cy="1.5" r="1.5" transform="translate(116 33)" fill="#30e3ca"/><path d="M130.674,47.516,135.325,60l1.55-6.283,6.283-1.55Z" fill="#2f89fc" stroke="#2f89fc" stroke-linecap="round" stroke-linejoin="round" stroke-width="1"/><rect width="64" height="64" transform="translate(84)" fill="none"/></g></svg>