<svg xmlns="http://www.w3.org/2000/svg" width="64" height="64" viewBox="0 0 64 64"><g transform="translate(-168)"><g transform="translate(176 8)" fill="#fff" stroke="#30e3ca" stroke-linecap="round" stroke-miterlimit="10" stroke-width="2"><rect width="36" height="17" rx="8" stroke="none"/><rect x="1" y="1" width="34" height="15" rx="7" fill="none"/></g><path d="M212.27,35.576l-.541,1.452,1.552-.578A8.014,8.014,0,0,1,212.27,35.576Z" fill="none"/><g fill="#fff" stroke-linecap="round" stroke-miterlimit="10"><path d="M 219.0452423095703 39.00514984130859 C 219.0449829101563 39.00514984130859 219.0448760986328 39.00514984130859 219.0446014404297 39.00514984130859 C 218.4673919677734 39.00511169433594 217.8853912353516 38.9487190246582 217.3147583007813 38.83753967285156 C 216.0402984619141 38.58910369873047 214.8645782470703 38.08230590820313 213.8132629394531 37.32901382446289 C 212.6567077636719 37.5337028503418 210.8125305175781 37.85091781616211 210.7914733886719 37.85453033447266 L 210.7809295654297 37.85634994506836 L 210.7703399658203 37.85794067382813 C 210.6945190429688 37.86930847167969 210.6174163818359 37.87508010864258 210.5411834716797 37.87508010864258 C 210.4460754394531 37.87508010864258 210.3506927490234 37.86613082885742 210.2576751708984 37.84849166870117 L 210.2542572021484 37.84783935546875 L 210.2508544921875 37.84717178344727 C 209.85986328125 37.77019882202148 209.5213012695313 37.54624938964844 209.2975616455078 37.21654891967773 L 209.2956237792969 37.21369934082031 L 209.293701171875 37.21083831787109 C 208.9691009521484 36.72537994384766 208.9557342529297 36.09022903442383 209.2596130371094 35.59272003173828 L 210.6660614013672 33.29255676269531 C 210.0335845947266 31.69440269470215 209.8727569580078 29.97350883483887 210.2024993896484 28.28260040283203 C 211.0244445800781 24.06390953063965 214.7358551025391 21.00185012817383 219.0273590087891 21.00185012817383 C 219.6043853759766 21.00185012817383 220.1864013671875 21.05824089050293 220.7572326660156 21.16946029663086 C 223.116943359375 21.62920951843262 225.1564331054688 22.98036003112793 226.5 24.9740104675293 C 227.8435821533203 26.96766090393066 228.330322265625 29.36495018005371 227.8705444335938 31.72427940368652 C 227.0485687255859 35.94313430786133 223.3369598388672 39.00514984130859 219.0452423095703 39.00514984130859 Z" stroke="none"/><path d="M 219.0273590087891 22.00184631347656 C 215.2757568359375 22.00158309936523 211.9283905029297 24.65345001220703 211.1840057373047 28.47400093078613 C 210.8480072021484 30.19700050354004 211.1000061035156 31.89500045776367 211.7890014648438 33.37300109863281 L 210.1130065917969 36.11399841308594 C 210.0110015869141 36.28099822998047 210.0160064697266 36.49200057983398 210.125 36.65499877929688 C 210.2010040283203 36.76699829101563 210.3170013427734 36.84099960327148 210.4440002441406 36.86599731445313 C 210.4758911132813 36.87204742431641 210.5084075927734 36.87507629394531 210.5411834716797 36.87507629394531 C 210.5679931640625 36.87507629394531 210.5950012207031 36.87305068969727 210.6219940185547 36.86899948120117 C 210.6219940185547 36.86899948120117 213.0119934082031 36.45800018310547 214.0670013427734 36.26799774169922 C 215.0399932861328 37.04100036621094 216.2030029296875 37.60199737548828 217.5059967041016 37.85600280761719 C 218.0224456787109 37.95662307739258 218.5375213623047 38.00515365600586 219.044677734375 38.00515365600586 C 222.7964782714844 38.00515365600586 226.1446228027344 35.35355377197266 226.8890075683594 31.53299903869629 C 227.7339935302734 27.19699859619141 224.9029998779297 22.99599838256836 220.5659942626953 22.1510009765625 C 220.0495452880859 22.05037689208984 219.5344848632813 22.00188064575195 219.0273590087891 22.00184631347656 M 219.0267944335938 20.00185012817383 L 219.0267944335938 22.00185012817383 L 219.0269317626953 20.00185012817383 C 219.6686553955078 20.00188827514648 220.3149719238281 20.06449127197266 220.9484710693359 20.18790817260742 C 223.5703430175781 20.69873809814453 225.8364105224609 22.20000076293945 227.3292694091797 24.4151496887207 C 228.8221435546875 26.63032913208008 229.3629608154297 29.29401969909668 228.8520812988281 31.91555976867676 C 227.9388122558594 36.60295104980469 223.8141937255859 40.00514984130859 219.044677734375 40.00514984130859 C 218.4035949707031 40.00514984130859 217.7572174072266 39.94255065917969 217.12353515625 39.819091796875 C 215.8478393554688 39.57041168212891 214.6614685058594 39.08909606933594 213.5850524902344 38.38465881347656 C 212.4633941650391 38.58164215087891 211.0373840332031 38.82692337036133 210.9609527587891 38.84007263183594 L 210.9398651123047 38.84370040893555 L 210.9186706542969 38.84687042236328 C 210.7939453125 38.86557769775391 210.6669311523438 38.87506866455078 210.5411834716797 38.87506866455078 C 210.3836975097656 38.87506866455078 210.2256164550781 38.8602294921875 210.0713348388672 38.83097076416016 L 210.0645141601563 38.82968139648438 L 210.0577087402344 38.82833862304688 C 209.4065704345703 38.70015716552734 208.8427581787109 38.32717895507813 208.4701232910156 37.77809906005859 L 208.4662475585938 37.77240753173828 L 208.4624176025391 37.76667785644531 C 207.9219207763672 36.95835113525391 207.8998718261719 35.90039825439453 208.4062347412109 35.07144165039063 L 209.5608825683594 33.18307495117188 C 209.0055084228516 31.5440788269043 208.886962890625 29.8040885925293 209.2209930419922 28.09119033813477 C 210.1342010498047 23.40404891967773 214.2581634521484 20.00185012817383 219.0267944335938 20.00185012817383 Z" stroke="none" fill="#30e3ca"/></g><circle cx="5.92" cy="5.92" r="5.92" transform="translate(194.08 31.204)" fill="#2f89fc"/><path d="M211.112,59a1.813,1.813,0,0,0,1.784-2.106,13.067,13.067,0,0,0-25.792,0A1.813,1.813,0,0,0,188.888,59Z" fill="#2f89fc"/><g transform="translate(185 34)" fill="#fff" stroke="#30e3ca" stroke-linecap="round" stroke-miterlimit="10" stroke-width="2"><circle cx="3" cy="3" r="3" stroke="none"/><circle cx="3" cy="3" r="2" fill="none"/></g><g transform="translate(180 26)" fill="#fff" stroke="#30e3ca" stroke-linecap="round" stroke-miterlimit="10" stroke-width="2"><ellipse cx="4.5" cy="3.5" rx="4.5" ry="3.5" stroke="none"/><ellipse cx="4.5" cy="3.5" rx="3.5" ry="2.5" fill="none"/></g><line x2="13.682" transform="translate(183.58 19.5)" fill="#fff" stroke="#30e3ca" stroke-linecap="round" stroke-miterlimit="10" stroke-width="1"/><line x2="21.5" transform="translate(183.33 16.5)" fill="#fff" stroke="#30e3ca" stroke-linecap="round" stroke-miterlimit="10" stroke-width="1"/><line x2="21.5" transform="translate(183.33 13.5)" fill="#fff" stroke="#30e3ca" stroke-linecap="round" stroke-miterlimit="10" stroke-width="1"/><line x2="3.5" transform="translate(216.352 33.003)" fill="#fff" stroke="#30e3ca" stroke-linecap="round" stroke-miterlimit="10" stroke-width="1"/><line x2="5.499" transform="translate(216.288 30.003)" fill="#fff" stroke="#30e3ca" stroke-linecap="round" stroke-miterlimit="10" stroke-width="1"/><line x2="5.499" transform="translate(216.288 27.003)" fill="#fff" stroke="#30e3ca" stroke-linecap="round" stroke-miterlimit="10" stroke-width="1"/><rect width="64" height="64" transform="translate(168)" fill="none"/></g></svg>